<svg width="48" height="48" viewBox="0 0 48 48" fill="none" xmlns="http://www.w3.org/2000/svg">
<g clip-path="url(#clip0_36_1494)">
<path d="M18.76 16.84L16.96 15.05L15.55 16.46L17.34 18.25L18.76 16.84ZM16 22.5H13V24.5H16V22.5ZM25 12.55H23V15.5H25V12.55ZM32.45 16.46L31.04 15.05L29.25 16.84L30.66 18.25L32.45 16.46ZM29.24 30.16L31.03 31.96L32.44 30.55L30.64 28.76L29.24 30.16ZM32 22.5V24.5H35V22.5H32ZM24 17.5C20.69 17.5 18 20.19 18 23.5C18 26.81 20.69 29.5 24 29.5C27.31 29.5 30 26.81 30 23.5C30 20.19 27.31 17.5 24 17.5ZM23 34.45H25V31.5H23V34.45ZM15.55 30.54L16.96 31.95L18.75 30.15L17.34 28.74L15.55 30.54Z" fill="white"/>
</g>
<defs>
<clipPath id="clip0_36_1494">
<rect width="24" height="24" fill="white" transform="translate(12 12)"/>
</clipPath>
</defs>
</svg>
